<svg width="18" height="18" viewBox="0 0 18 18" fill="none" xmlns="http://www.w3.org/2000/svg">
<path d="M1 11.0459C1 7.98177 4.32663 5.09082 9 5.09082C13.6734 5.09082 17 7.98177 17 11.0459C16.9997 14.1099 13.6731 17 9 17C4.32686 17 1.00032 14.1099 1 11.0459Z" fill="#4E00DE" stroke="#F7F7F7" stroke-width="2"/>
<path d="M1 6.95499C1 3.89086 4.32663 0.999908 9 0.999908C13.6734 0.999908 17 3.89086 17 6.95499C16.9997 10.019 13.6731 12.9091 9 12.9091C4.32686 12.9091 1.00032 10.019 1 6.95499Z" fill="#4E00DE" stroke="#F7F7F7" stroke-width="2"/>
<rect x="16.3636" y="6.54544" width="1.63636" height="4.90909" fill="#F7F7F7"/>
<rect y="6.54544" width="1.63636" height="4.90909" fill="#F7F7F7"/>
</svg>
